<svg width="46" height="46" viewBox="0 0 46 46" fill="none" xmlns="http://www.w3.org/2000/svg">
<rect x="0.5" y="0.5" width="45" height="45" rx="6.5" fill="#EDF1F4" stroke="#E5E9ED"/>
<g clip-path="url(#clip0_3214_19672)">
<path d="M26.96 13H19.04C16.8088 13 15 14.8088 15 17.04V28.96C15 31.1912 16.8088 33 19.04 33H26.96C29.1912 33 31 31.1912 31 28.96V17.04C31 14.8088 29.1912 13 26.96 13Z" fill="white" stroke="black" stroke-width="2" stroke-miterlimit="10"/>
<path d="M21.6899 22.66C21.7699 22.76 21.8599 22.85 21.9599 22.92C21.9599 22.92 21.9699 22.92 21.9799 22.93C22.0699 23 22.1599 23.06 22.2599 23.12C22.2899 23.14 22.3299 23.15 22.3699 23.16C22.4499 23.19 22.5199 23.23 22.6099 23.25C22.7299 23.28 22.8599 23.3 22.9999 23.3C23.1399 23.3 23.2699 23.28 23.3899 23.25C23.4699 23.23 23.5499 23.19 23.6299 23.16C23.6699 23.14 23.6999 23.13 23.7399 23.12C23.8399 23.07 23.9299 23.01 24.0199 22.94C24.0199 22.94 24.0299 22.94 24.0399 22.93C24.1399 22.85 24.2199 22.76 24.3099 22.67C24.7099 22.2 24.9799 21.53 25.0999 20.78C25.3099 19.41 24.5599 18.06 22.9999 18.06C21.4399 18.06 20.6899 19.33 20.8999 20.78C21.0099 21.53 21.2799 22.2 21.6899 22.67V22.66Z" fill="black"/>
<path d="M25.03 22.96C24.52 23.65 23.82 24.06 23 24.06C22.18 24.06 21.49 23.65 20.97 22.96C20.1 23.46 19.5 24.4 19.5 25.48V25.68C20.5 26.47 21.76 26.95 23.13 26.95C24.39 26.95 25.55 26.55 26.5 25.88V25.48C26.5 24.4 25.9 23.47 25.03 22.96V22.96Z" fill="black"/>
<path d="M29.56 23.76L32.28 23L33.66 25.46L36.12 26.84L35.36 29.56L36.12 32.28L33.66 33.66L32.28 36.12L29.56 35.36L26.84 36.12L25.46 33.66L23 32.28L23.76 29.56L23 26.84L25.46 25.46L26.84 23L29.56 23.76Z" fill="#EDF1F4"/>
<path d="M29.5601 25.6L31.4201 25.08L32.3601 26.76L34.0401 27.7L33.5201 29.56L34.0401 31.42L32.3601 32.36L31.4201 34.04L29.5601 33.52L27.7001 34.04L26.7601 32.36L25.0801 31.42L25.6001 29.56L25.0801 27.7L26.7601 26.76L27.7001 25.08L29.5601 25.6Z" fill="white" stroke="black" stroke-width="1.5" stroke-miterlimit="10"/>
<path d="M28.7105 30.84L27.4805 29.61L27.9105 29.08L28.7605 29.65C29.0805 29.81 29.4105 29.81 29.7305 29.6L31.7005 28.13L32.1405 28.57L29.8705 30.84C29.5505 31.16 29.0405 31.16 28.7205 30.84H28.7105Z" fill="black"/>
</g>
<defs>
<clipPath id="clip0_3214_19672">
<rect width="26.12" height="26.12" fill="white" transform="translate(10 10)"/>
</clipPath>
</defs>
</svg>
