<svg width="46" height="46" viewBox="0 0 46 46" fill="none" xmlns="http://www.w3.org/2000/svg">
<rect x="0.5" y="0.5" width="45" height="45" rx="6.5" fill="#E5E9ED" stroke="#DAE0E6"/>
<g clip-path="url(#clip0_3214_19715)">
<path d="M27.8602 13.5H18.1502C15.8085 13.5 13.9102 15.3983 13.9102 17.74V27.45C13.9102 29.7917 15.8085 31.69 18.1502 31.69H27.8602C30.2018 31.69 32.1002 29.7917 32.1002 27.45V17.74C32.1002 15.3983 30.2018 13.5 27.8602 13.5Z" fill="white" stroke="black" stroke-width="2" stroke-miterlimit="10"/>
<path d="M26.8298 17.39H18.3398V18.66H26.8298V17.39Z" fill="black"/>
<path d="M18.3401 20.29H23.4301V21.56H18.9401C18.6101 21.56 18.3301 21.29 18.3301 20.95V20.28L18.3401 20.29Z" fill="black"/>
<path d="M28.8301 36.59C32.6961 36.59 35.8301 33.456 35.8301 29.59C35.8301 25.724 32.6961 22.59 28.8301 22.59C24.9641 22.59 21.8301 25.724 21.8301 29.59C21.8301 33.456 24.9641 36.59 28.8301 36.59Z" fill="#EDF1F4"/>
<path d="M28.8301 34.59C31.5915 34.59 33.8301 32.3514 33.8301 29.59C33.8301 26.8286 31.5915 24.59 28.8301 24.59C26.0687 24.59 23.8301 26.8286 23.8301 29.59C23.8301 32.3514 26.0687 34.59 28.8301 34.59Z" fill="white" stroke="black" stroke-width="1.5"/>
<path d="M30.9592 29.17H26.6992V30.02H30.9592V29.17Z" fill="black"/>
<path d="M29.2484 27.47H28.3984V31.73H29.2484V27.47Z" fill="black"/>
</g>
<defs>
<clipPath id="clip0_3214_19715">
<rect width="26" height="26.59" fill="white" transform="translate(10 10)"/>
</clipPath>
</defs>
</svg>
